<?xml version="1.0" encoding="utf-8"?>
<!-- Generator: Adobe Illustrator 25.0.0, SVG Export Plug-In . SVG Version: 6.00 Build 0)  -->
<svg version="1.1" id="Capa_2" xmlns="http://www.w3.org/2000/svg" xmlns:xlink="http://www.w3.org/1999/xlink" x="0px" y="0px"
	 viewBox="0 0 694.5 694.5" enable-background="new 0 0 694.5 694.5" xml:space="preserve">
<g>
	<path fill="#FFFFFF" d="M492.8,295.6c-9,0-18-0.5-27-1.4c-0.1,0-0.1,0-0.2,0c-48.3-5.4-92.7-25.6-131.8-60.1
		c-0.4-0.3-0.8-0.7-1.1-1.1c-1.5-1.5-2.7-3-3.5-4.2c-2.6-2.3-4.5-4.5-5.8-6c-0.2-0.2-0.3-0.4-0.4-0.5c-6.5-5.6-13.2-10.3-20.9-15.7
		c-1.3-0.9-2.6-1.8-4-2.8c-0.1,0-0.1-0.1-0.2-0.1c-2.7-1.9-6.4-3.8-10.3-5.7c-2.7-1.3-5.5-2.7-8.4-4.3c-6.6-2.9-13.5-5.1-21.4-7.6
		c-2.8-0.9-5.6-1.8-8.5-2.8c-11.9-3.1-24.7-5-40.2-6c-65.4-3.1-120.7,27.7-155.6,54c-11,8.3-26.7,6.1-35-4.9
		c-8.3-11-6.1-26.7,4.9-35c41.5-31.3,107.8-67.9,188.3-64c0.1,0,0.2,0,0.4,0c19.3,1.2,35.5,3.7,50.9,7.8c0.5,0.1,1,0.3,1.5,0.4
		c2.9,1,5.8,1.9,8.7,2.8c9,2.9,18.2,5.8,27.8,10.2c0.7,0.3,1.4,0.7,2.1,1.1c1.9,1.1,4.3,2.3,6.8,3.5c5.3,2.6,11.2,5.5,17.2,9.8
		c1.3,0.9,2.5,1.8,3.8,2.6c9,6.3,17.5,12.2,26.4,20.1c0.4,0.3,0.7,0.7,1.1,1c1.3,1.3,2.3,2.5,3.2,3.5c0.3,0.3,0.6,0.7,0.9,1
		c1,0.8,2,1.6,3,2.5c1.7,1.7,3,3.4,3.8,4.7c31.1,26.9,64.5,42,102.1,46.2c29.7,3,59.7-0.2,89.2-9.6c28.7-9.1,55.4-23.6,79.4-43
		c10.7-8.7,26.5-7,35.2,3.7s7,26.5-3.7,35.2c-28.9,23.3-61,40.7-95.6,51.7C548.2,291.2,520.5,295.6,492.8,295.6z"/>
	<path fill="#FFFFFF" d="M495.4,431.5c-28.8,0-56.9-4.8-85.1-14.5c-0.2-0.1-0.4-0.2-0.7-0.2c-28-10.5-51.4-25.4-71.6-45.4
		c-27.9-25.8-54.5-42-83.7-51c-47.3-13.1-96.7-9-142.7,11.8c-21.1,9.6-41.1,21.6-57.8,34.8c-10.8,8.6-26.6,6.7-35.1-4.1
		c-8.6-10.8-6.7-26.6,4.1-35.1c19.8-15.7,43.4-29.9,68.1-41.1c57-25.7,118.2-30.7,177-14.3c0.2,0.1,0.4,0.1,0.6,0.2
		c36.9,11.3,69.9,31.2,103.7,62.6c0.2,0.2,0.4,0.4,0.7,0.6c15,15,32.6,26.1,53.8,34.1c32,10.9,63.8,14.1,97.1,9.8
		c40.6-6,79.7-23.4,116-51.9c10.9-8.5,26.6-6.6,35.1,4.3c8.5,10.9,6.6,26.6-4.3,35.1c-43.3,34-90.4,54.9-139.8,62.1
		c-0.1,0-0.2,0-0.3,0C518.7,430.7,507,431.5,495.4,431.5z"/>
	<path fill="#FFFFFF" d="M493.8,567.5c-24.6,0-48.6-3.7-72.9-11.3c-0.3-0.1-0.5-0.2-0.8-0.3c-31.1-10.8-55.9-24.6-78.1-43.6
		c-0.3-0.2-0.6-0.5-0.8-0.7c-1.8-1.6-3.5-3.3-5.2-4.9c-13.2-12.5-25.7-24.2-40-32.6c-14.3-7.9-30.3-14.3-51.8-20.8
		c-12.4-3.6-27-5-43.4-4c-0.5,0-1,0-1.5,0c-37,0-72.2,8.9-101.6,25.7c-0.4,0.2-0.8,0.4-1.2,0.7c-2.6,1.3-5,2.1-6.8,2.5
		c-13.7,8.3-24.5,15.1-35.3,24.2c-10.5,8.9-26.3,7.6-35.2-2.9c-8.9-10.5-7.6-26.3,2.9-35.2c14.2-12,27.9-20.5,44.3-30.4
		c0.5-0.3,1.1-0.6,1.7-0.9c2.8-1.4,5.3-2.2,7-2.6c36.3-20.2,78.9-30.9,123.4-31c22-1.2,42.1,0.8,59.8,6c0,0,0.1,0,0.1,0
		c25.2,7.6,44.4,15.3,62,25.1c0.1,0.1,0.3,0.1,0.4,0.2c19.5,11.3,34.7,25.7,49.5,39.6c1.6,1.5,3.1,2.9,4.7,4.4
		c17.1,14.5,36.5,25.3,61.1,33.9c25.7,7.9,51.1,10.5,77.5,7.9c25.6-3.1,45.3-8.1,63.8-16.1c0.2-0.1,0.5-0.2,0.7-0.3
		c20.1-8,39.9-19.7,62.1-36.7c11-8.4,26.7-6.2,35,4.7c8.4,11,6.2,26.7-4.7,35c-25.9,19.7-49.2,33.4-73.5,43.2
		c-23,10-47,16.1-77.7,19.7c-0.2,0-0.3,0-0.5,0.1C510.4,567.1,502.1,567.5,493.8,567.5z"/>
</g>
</svg>
