<?xml version="1.0" encoding="utf-8"?>
<!-- Generator: Adobe Illustrator 25.0.0, SVG Export Plug-In . SVG Version: 6.00 Build 0)  -->
<svg version="1.1" id="Capa_1" xmlns="http://www.w3.org/2000/svg" xmlns:xlink="http://www.w3.org/1999/xlink" x="0px" y="0px"
	 viewBox="0 0 694.5 694.5" enable-background="new 0 0 694.5 694.5" xml:space="preserve">
<g>
	<path d="M668.1,532.6L507.7,372.2c-19.9-19.9-52.9-20.6-73.7-1.7l-13.8,12.6l-13.6-13.6l76.7-76.7c16-16,16-42.1,0-58.1l-28.1-28.1
		c-7.7-7.7-18.1-12-29-12c-11,0-21.3,4.3-29,12l-76.7,76.7l-12.3-12.3l12.3-11.2c10.4-9.5,16.3-22.4,16.6-36.3
		c0.3-13.9-5-27-14.9-37L161.8,26.3c-19.9-19.9-52.9-20.6-73.7-1.7L34.5,73.3c-10.4,9.5-16.3,22.4-16.6,36.3c-0.3,13.9,5,27,14.9,37
		L193.1,307c10.2,10.2,24,15.4,37.8,15.4c12.9,0,25.9-4.5,35.9-13.7l13.8-12.6l13.6,13.6l-12.7,12.7c-16,16-16,42.1,0,58.1l1.5,1.5
		l-6.4,6.4l-0.5-0.5c-6.9-6.9-18.3-6.9-25.2,0l-1.7,1.7c-6.9,6.9-6.9,18.3,0,25.2l26.1,26.1c6.9,6.9,18.3,6.9,25.2,0l1.7-1.7
		c6.9-6.9,6.9-18.3,0-25.2l-0.5-0.5l6.4-6.4l1.5,1.5c8,8,18.5,12,29,12c10.5,0,21-4,29-12l12.7-12.7l12.3,12.3l-12.3,11.2
		c-10.4,9.5-16.3,22.4-16.6,36.3c-0.3,13.9,5,27,14.9,37l160.4,160.4c10.2,10.2,24,15.4,37.8,15.4c12.9,0,25.9-4.5,35.9-13.7
		l53.6-48.8c10.4-9.5,16.3-22.4,16.6-36.3C683.3,555.7,678,542.5,668.1,532.6z M224.9,275.1L224.9,275.1L64.6,114.8
		c-1.5-1.5-1.8-3-1.7-4.1c0-1.1,0.4-2.6,1.9-4.1l53.6-48.8c3.1-2.8,8.6-2.7,11.6,0.3l160.4,160.4c1.5,1.5,1.8,3,1.7,4.1
		c0,1.1-0.4,2.6-1.9,4.1l-53.6,48.8C233.4,278.2,227.9,278.1,224.9,275.1z M313.4,351.3l112.8-112.8l25.2,25.2L338.7,376.6
		L313.4,351.3z M636,572.6l-53.6,48.8c-3.1,2.8-8.6,2.7-11.6-0.2L410.5,460.7c-1.5-1.5-1.8-3-1.7-4.1c0-1.1,0.4-2.6,1.9-4.1
		l53.6-48.8c1.5-1.4,3.6-2,5.7-2c2.2,0,4.4,0.8,5.9,2.3l160.4,160.4c1.5,1.5,1.8,3,1.7,4.1C638,569.6,637.6,571.2,636,572.6z"/>
	<path d="M330.1,608.4c-23.2,4.6-46.7,5.5-69.5,2.6c-22.8-2.9-44.8-9.4-65.1-19.3c-20.3-9.9-38.7-23.1-54.6-39
		c-15.9-15.9-29.1-34.4-39-54.7c-9.9-20.3-16.4-42.3-19.3-65.1c-2.9-22.8-2.1-46.3,2.6-69.4c2.3-11.6,5.6-23.1,9.7-34.4
		c4.2-11.3,9.3-22.5,15.2-33.4c-9.1,8.5-17.1,18.3-24.1,28.9c-7,10.6-12.9,22-17.7,33.9c-9.6,23.9-14.3,50.1-13.9,76.4
		c0.4,26.3,6,52.8,16.4,77.3c10.4,24.5,25.7,47.1,44.6,66c18.9,18.9,41.5,34.2,66,44.6c24.5,10.5,51,16,77.3,16.4
		c26.3,0.4,52.5-4.3,76.4-13.9c12-4.8,23.4-10.7,33.9-17.7c10.6-7,20.3-15,28.9-24.1c-11,5.9-22.1,11-33.4,15.2
		C353.2,602.8,341.7,606.1,330.1,608.4z"/>
	<path d="M153.5,357.5c2.5-7.9,5.7-15.7,9.3-23.6c-6.8,5.4-12.9,11.9-18.2,19c-5.4,7.1-9.9,14.9-13.7,23.2
		c-7.5,16.5-11.5,35-11.7,53.6c-0.2,18.7,3.4,37.6,10.7,55.2c7.2,17.6,18.1,33.8,31.6,47.3c13.5,13.5,29.7,24.4,47.3,31.6
		c17.6,7.2,36.5,10.9,55.2,10.7c18.7-0.2,37.1-4.2,53.6-11.7c8.3-3.8,16.1-8.3,23.2-13.7c7.1-5.3,13.6-11.4,19-18.2
		c-7.9,3.6-15.7,6.8-23.6,9.3c-7.9,2.5-15.8,4.4-23.7,5.7c-15.8,2.5-31.6,2.6-46.7,0.3c-15.1-2.3-29.6-6.9-42.9-13.5
		c-13.3-6.7-25.4-15.4-35.8-25.9c-10.4-10.5-19.2-22.6-25.9-35.8c-6.7-13.3-11.2-27.8-13.5-42.9c-2.3-15.1-2.2-30.9,0.3-46.7
		C149,373.3,151,365.4,153.5,357.5z"/>
	<path d="M215.5,385.5c0.4-2.1,0.8-4.2,1.1-6.6c-2,1.1-3.8,2.4-5.8,3.8c-1.7,1.5-3.4,3-5.1,4.7c-1.6,1.7-3,3.5-4.5,5.4
		c-1.3,1.9-2.6,3.9-3.9,6c-4.7,8.4-7.5,18.1-8,28c-0.6,10,1.1,20.3,4.8,29.9c3.7,9.6,9.6,18.5,16.9,25.8
		c7.3,7.3,16.2,13.2,25.8,16.9c9.6,3.7,19.9,5.4,29.9,4.8c10-0.5,19.7-3.3,28-8c2.1-1.3,4.1-2.5,6-3.9c1.9-1.5,3.7-3,5.4-4.5
		c1.6-1.7,3.2-3.4,4.7-5.1c1.4-1.9,2.7-3.8,3.8-5.8c-2.3,0.3-4.5,0.7-6.6,1.1c-2.2,0.3-4.3,0.5-6.2,0.8c-2.1,0.1-4.1,0.2-6,0.4
		c-2,0-3.9,0-5.8,0c-7.6-0.2-14.6-1.4-21-3.2c-13-3.8-23.7-10.2-32.5-18.9c-8.7-8.8-15.2-19.5-18.9-32.5c-1.8-6.5-3-13.5-3.2-21
		c0-1.9,0-3.8,0-5.8c0.2-1.9,0.3-3.9,0.4-6C215,389.8,215.2,387.7,215.5,385.5z"/>
</g>
</svg>
