<?xml version="1.0" encoding="utf-8"?>
<!-- Generator: Adobe Illustrator 25.0.1, SVG Export Plug-In . SVG Version: 6.00 Build 0)  -->
<svg version="1.1" id="Capa_3" xmlns="http://www.w3.org/2000/svg" xmlns:xlink="http://www.w3.org/1999/xlink" x="0px" y="0px"
	 viewBox="0 0 694.5 694.5" enable-background="new 0 0 694.5 694.5" xml:space="preserve">
<path fill="#0A468E" d="M347.2,690.5c-70.4,0-136.6-27.4-186.4-77.2c-49.8-49.8-77.2-116-77.2-186.4c0-46.7,22.1-107.7,59.2-163.1
	c41-61.3,93.5-126.8,131.8-174.5c20.9-26.1,42.5-53,48.3-62.4c0.3-1.3,0.8-2.6,1.3-3.9c3.9-9.4,13.1-15.4,23.3-15.3
	c10.2,0.1,19.2,6.3,23,15.8c0.4,0.9,0.7,1.8,0.9,2.7c5.4,8.6,25.1,33.2,44.1,57c41.8,52.3,99.1,123.9,142.3,191.2
	c33.7,52.5,53.1,108.1,53.1,152.6c0,70.4-27.4,136.6-77.2,186.4S417.7,690.5,347.2,690.5z M347.5,77.8
	c-9.1,11.8-20.8,26.3-33.9,42.7c-37.7,47.1-89.4,111.5-129.2,171c-31.3,46.8-50.8,98.7-50.8,135.3c0,117.8,95.8,213.7,213.7,213.7
	c117.8,0,213.7-95.8,213.7-213.7c0-34.6-16.9-81.5-45.2-125.5c-41.8-65.1-98.1-135.5-139.2-187C365.4,100.5,355.5,88.1,347.5,77.8z"
	/>
<g>
	<path fill="#0A468E" d="M284.3,380.9c-36.1,0-65.4-29.4-65.4-65.4c0-36.1,29.4-65.4,65.4-65.4c36.1,0,65.4,29.4,65.4,65.4
		C349.8,351.5,320.4,380.9,284.3,380.9z M284.3,295c-11.3,0-20.4,9.2-20.4,20.4c0,11.3,9.2,20.4,20.4,20.4
		c11.3,0,20.4-9.2,20.4-20.4C304.8,304.2,295.6,295,284.3,295z"/>
	<path fill="#0A468E" d="M410.9,595.4c-36.1,0-65.4-29.4-65.4-65.4s29.4-65.4,65.4-65.4s65.4,29.4,65.4,65.4
		S446.9,595.4,410.9,595.4z M410.9,509.5c-11.3,0-20.4,9.2-20.4,20.4c0,11.3,9.2,20.4,20.4,20.4c11.3,0,20.4-9.2,20.4-20.4
		C431.3,518.7,422.1,509.5,410.9,509.5z"/>
	<path fill="#0A468E" d="M232.8,555.7c-5.8,0-11.5-2.2-15.9-6.6c-8.8-8.8-8.8-23,0-31.8l229-229c8.8-8.8,23-8.8,31.8,0
		c8.8,8.8,8.8,23,0,31.8l-229,229C244.3,553.5,238.5,555.7,232.8,555.7z"/>
</g>
</svg>
